<?xml version="1.0" encoding="UTF-8" standalone="no"?>
<!DOCTYPE svg PUBLIC "-//W3C//DTD SVG 1.1//EN"
 "http://www.w3.org/Graphics/SVG/1.1/DTD/svg11.dtd">
<!-- Generated by graphviz version 2.38.0 (20140413.2041)
 -->
<!-- Title: %3 Pages: 1 -->
<svg width="145pt" height="260pt"
 viewBox="0.00 0.00 145.08 260.00" xmlns="http://www.w3.org/2000/svg" xmlns:xlink="http://www.w3.org/1999/xlink">
<g id="graph0" class="graph" transform="scale(1 1) rotate(0) translate(4 256)">
<title>%3</title>
<polygon fill="white" stroke="none" points="-4,4 -4,-256 141.084,-256 141.084,4 -4,4"/>
<!-- A -->
<g id="node1" class="node"><title>A</title>
<ellipse fill="none" stroke="black" cx="91" cy="-234" rx="27" ry="18"/>
<text text-anchor="middle" x="91" y="-230.3" font-family="Times New Roman,serif" font-size="14.00">A</text>
</g>
<!-- B -->
<g id="node2" class="node"><title>B</title>
<ellipse fill="none" stroke="black" cx="27" cy="-162" rx="27" ry="18"/>
<text text-anchor="middle" x="27" y="-158.3" font-family="Times New Roman,serif" font-size="14.00">B</text>
</g>
<!-- A&#45;&gt;B -->
<g id="edge1" class="edge"><title>A&#45;&gt;B</title>
<path fill="none" stroke="black" d="M73.5506,-219.834C63.8089,-210.618 51.9638,-198.041 42.5498,-187.06"/>
<polygon fill="black" stroke="black" points="44.9826,-184.511 35.8998,-179.057 39.5986,-188.985 44.9826,-184.511"/>
</g>
<!-- C -->
<g id="node3" class="node"><title>C</title>
<ellipse fill="none" stroke="black" cx="87" cy="-18" rx="27" ry="18"/>
<text text-anchor="middle" x="87" y="-14.3" font-family="Times New Roman,serif" font-size="14.00">C</text>
</g>
<!-- A&#45;&gt;C -->
<g id="edge2" class="edge"><title>A&#45;&gt;C</title>
<path fill="none" stroke="black" d="M94.4717,-215.796C105.108,-186.034 129.747,-123.21 114,-72 110.975,-62.1621 105.433,-52.5118 100.015,-44.1987"/>
<polygon fill="black" stroke="black" points="102.808,-42.0817 94.308,-35.7574 97.0091,-46.0022 102.808,-42.0817"/>
</g>
<!-- D -->
<g id="node4" class="node"><title>D</title>
<ellipse fill="none" stroke="black" cx="87" cy="-90" rx="27" ry="18"/>
<text text-anchor="middle" x="87" y="-86.3" font-family="Times New Roman,serif" font-size="14.00">D</text>
</g>
<!-- A&#45;&gt;D -->
<g id="edge3" class="edge"><title>A&#45;&gt;D</title>
<path fill="none" stroke="black" d="M85.9709,-216.153C82.6919,-191.92 81.132,-146.965 82.3268,-118.046"/>
<polygon fill="black" stroke="black" points="85.8347,-118.011 82.9218,-107.825 78.8465,-117.605 85.8347,-118.011"/>
</g>
<!-- B&#45;&gt;A -->
<g id="edge4" class="edge"><title>B&#45;&gt;A</title>
<path fill="none" stroke="black" d="M44.6234,-176.331C54.2967,-185.498 66.0069,-197.934 75.3483,-208.821"/>
<polygon fill="black" stroke="black" points="72.8708,-211.316 81.957,-216.765 78.2519,-206.839 72.8708,-211.316"/>
</g>
<!-- B&#45;&gt;C -->
<g id="edge5" class="edge"><title>B&#45;&gt;C</title>
<path fill="none" stroke="black" d="M23.1978,-144.021C24.2861,-125.672 31.0583,-95.8559 42,-72 47.2365,-60.5829 54.8579,-48.9258 62.5137,-39.4618"/>
<polygon fill="black" stroke="black" points="65.2782,-41.6164 69.1914,-31.7707 59.9925,-37.0272 65.2782,-41.6164"/>
</g>
<!-- B&#45;&gt;D -->
<g id="edge6" class="edge"><title>B&#45;&gt;D</title>
<path fill="none" stroke="black" d="M35.1152,-144.765C42.4751,-134.885 53.2338,-122.172 63.1382,-111.59"/>
<polygon fill="black" stroke="black" points="65.7159,-113.959 70.1384,-104.331 60.6773,-109.1 65.7159,-113.959"/>
</g>
<!-- C&#45;&gt;A -->
<g id="edge7" class="edge"><title>C&#45;&gt;A</title>
<path fill="none" stroke="black" d="M105.915,-31.3491C116.189,-41.4216 127.227,-56.4773 132,-72 146.651,-119.643 126.344,-177.339 109.139,-209.111"/>
<polygon fill="black" stroke="black" points="105.917,-207.69 103.941,-218.099 111.977,-211.195 105.917,-207.69"/>
</g>
<!-- C&#45;&gt;B -->
<g id="edge8" class="edge"><title>C&#45;&gt;B</title>
<path fill="none" stroke="black" d="M81.3268,-35.7938C74.9357,-45.8085 65.9357,-59.0585 60,-72 50.6426,-92.4017 44.3346,-117.163 39.0634,-135.383"/>
<polygon fill="black" stroke="black" points="35.6945,-134.432 36.1469,-145.017 42.3942,-136.46 35.6945,-134.432"/>
</g>
<!-- C&#45;&gt;D -->
<g id="edge9" class="edge"><title>C&#45;&gt;D</title>
<path fill="none" stroke="black" d="M92.8794,-35.9562C93.7139,-43.8272 93.9485,-53.3739 93.5831,-62.1869"/>
<polygon fill="black" stroke="black" points="90.0742,-62.1835 92.8399,-72.411 97.0558,-62.6911 90.0742,-62.1835"/>
</g>
<!-- D&#45;&gt;A -->
<g id="edge10" class="edge"><title>D&#45;&gt;A</title>
<path fill="none" stroke="black" d="M92.0261,-107.825C95.3062,-132.046 96.8674,-177 95.6743,-205.928"/>
<polygon fill="black" stroke="black" points="92.1661,-205.967 95.08,-216.153 99.1544,-206.373 92.1661,-205.967"/>
</g>
<!-- D&#45;&gt;B -->
<g id="edge11" class="edge"><title>D&#45;&gt;B</title>
<path fill="none" stroke="black" d="M78.8283,-107.311C71.4309,-117.233 60.6271,-129.989 50.7049,-140.578"/>
<polygon fill="black" stroke="black" points="48.1266,-138.209 43.697,-147.834 53.1617,-143.072 48.1266,-138.209"/>
</g>
<!-- D&#45;&gt;C -->
<g id="edge12" class="edge"><title>D&#45;&gt;C</title>
<path fill="none" stroke="black" d="M81.1601,-72.411C80.2975,-64.507 80.0481,-54.8518 80.4119,-45.9352"/>
<polygon fill="black" stroke="black" points="83.9033,-46.1791 81.1206,-35.9562 76.9209,-45.6831 83.9033,-46.1791"/>
</g>
</g>
</svg>
