<?xml version="1.0" encoding="UTF-8" standalone="no"?>
<!DOCTYPE svg PUBLIC "-//W3C//DTD SVG 1.1//EN"
 "http://www.w3.org/Graphics/SVG/1.1/DTD/svg11.dtd">
<!-- Generated by graphviz version 2.38.0 (20140413.2041)
 -->
<!-- Title: %3 Pages: 1 -->
<svg width="550pt" height="274pt"
 viewBox="0.00 0.00 550.19 274.00" xmlns="http://www.w3.org/2000/svg" xmlns:xlink="http://www.w3.org/1999/xlink">
<g id="graph0" class="graph" transform="scale(1 1) rotate(0) translate(4 270)">
<title>%3</title>
<polygon fill="#c0ffee" stroke="none" points="-4,4 -4,-270 546.185,-270 546.185,4 -4,4"/>
<text text-anchor="middle" x="271.093" y="-10.8" font-family="Times New Roman,serif" font-size="24.00" fill="#882200">改變型態</text>
<!-- A -->
<g id="node1" class="node"><title>A</title>
<polygon fill="#ffeec0" stroke="black" points="181.185,-266 127.185,-266 127.185,-230 181.185,-230 181.185,-266"/>
<text text-anchor="middle" x="154.185" y="-244.3" font-family="Consolas" font-size="14.00" fill="green">Lexus</text>
</g>
<!-- B -->
<g id="node2" class="node"><title>B</title>
<polygon fill="#ffeec0" stroke="black" points="119.185,-168 57.1854,-168 57.1854,-132 119.185,-132 119.185,-168"/>
<text text-anchor="middle" x="88.1854" y="-146.3" font-family="Consolas" font-size="14.00" fill="green">Toyota</text>
</g>
<!-- A&#45;&gt;B -->
<g id="edge1" class="edge"><title>A&#45;&gt;B</title>
<path fill="none" stroke="#220088" stroke-dasharray="1,5" d="M127.158,-244.601C88.42,-240.54 20.1195,-230.849 5.18543,-212 -1.99077,-202.943 -1.2039,-195.628 5.18543,-186 14.7092,-171.648 31.4016,-163.167 47.3313,-158.162"/>
<polygon fill="#220088" stroke="#220088" points="57.0804,-155.473 48.6368,-162.47 52.2604,-156.802 47.4403,-158.132 47.4403,-158.132 47.4403,-158.132 52.2604,-156.802 46.2439,-153.794 57.0804,-155.473 57.0804,-155.473"/>
<text text-anchor="middle" x="148.185" y="-192.8" font-family="Courier,monospace" font-size="24.00" fill="#008822">same holding company</text>
</g>
<!-- C -->
<g id="node3" class="node"><title>C</title>
<polygon fill="#ffeec0" stroke="black" points="229.185,-70 175.185,-70 175.185,-34 229.185,-34 229.185,-70"/>
<text text-anchor="middle" x="202.185" y="-48.3" font-family="Consolas" font-size="14.00" fill="green">馬自達</text>
</g>
<!-- A&#45;&gt;C -->
<g id="edge2" class="edge"><title>A&#45;&gt;C</title>
<path fill="none" stroke="#220088" stroke-dasharray="1,5" d="M181.466,-243.96C217.469,-239.322 277.859,-229.159 291.185,-212 325.514,-167.799 269.89,-108.754 232.247,-76.4916"/>
<polygon fill="#220088" stroke="#220088" points="224.526,-70.0287 235.082,-72.9968 228.36,-73.238 232.194,-76.4474 232.194,-76.4474 232.194,-76.4474 228.36,-73.238 229.305,-79.8981 224.526,-70.0287 224.526,-70.0287"/>
<text text-anchor="middle" x="420.685" y="-143.8" font-family="Courier,monospace" font-size="24.00" fill="#008822">racing competitor</text>
</g>
<!-- B&#45;&gt;C -->
<g id="edge3" class="edge"><title>B&#45;&gt;C</title>
<path fill="none" stroke="#220088" stroke-dasharray="1,5" d="M108.566,-131.837C126.885,-116.411 153.954,-93.6159 174.279,-76.4998"/>
<polygon fill="#220088" stroke="#220088" points="181.981,-70.0143 177.23,-79.8978 178.156,-73.235 174.332,-76.4557 174.332,-76.4557 174.332,-76.4557 178.156,-73.235 171.433,-73.0136 181.981,-70.0143 181.981,-70.0143"/>
<text text-anchor="middle" x="190.185" y="-94.8" font-family="Courier,monospace" font-size="24.00" fill="#008822">大眾市場</text>
</g>
<!-- D -->
<g id="node4" class="node"><title>D</title>
<polygon fill="#ffeec0" stroke="black" points="115.185,-70 61.1854,-70 61.1854,-34 115.185,-34 115.185,-70"/>
<text text-anchor="middle" x="88.1854" y="-48.3" font-family="Consolas" font-size="14.00" fill="green">D</text>
</g>
<!-- B&#45;&gt;D -->
<g id="edge4" class="edge"><title>B&#45;&gt;D</title>
<path fill="none" stroke="#220088" stroke-dasharray="1,5" d="M88.1854,-131.837C88.1854,-117.503 88.1854,-96.8066 88.1854,-80.2158"/>
<polygon fill="#220088" stroke="#220088" points="88.1854,-70.0143 92.6855,-80.0142 88.1855,-75.0143 88.1855,-80.0143 88.1855,-80.0143 88.1855,-80.0143 88.1855,-75.0143 83.6855,-80.0143 88.1854,-70.0143 88.1854,-70.0143"/>
</g>
</g>
</svg>
