<?xml version="1.0" encoding="UTF-8" standalone="no"?>
<!DOCTYPE svg PUBLIC "-//W3C//DTD SVG 1.1//EN"
 "http://www.w3.org/Graphics/SVG/1.1/DTD/svg11.dtd">
<!-- Generated by graphviz version 2.38.0 (20140413.2041)
 -->
<!-- Title: %3 Pages: 1 -->
<svg width="269pt" height="218pt"
 viewBox="0.00 0.00 269.05 218.00" xmlns="http://www.w3.org/2000/svg" xmlns:xlink="http://www.w3.org/1999/xlink">
<g id="graph0" class="graph" transform="scale(1 1) rotate(0) translate(4 214)">
<title>%3</title>
<polygon fill="white" stroke="none" points="-4,4 -4,-214 265.047,-214 265.047,4 -4,4"/>
<!-- A -->
<g id="node1" class="node"><title>A</title>
<ellipse fill="none" stroke="black" cx="95.0467" cy="-192" rx="32.4942" ry="18"/>
<text text-anchor="middle" x="95.0467" y="-188.3" font-family="Times New Roman,serif" font-size="14.00">Lexus</text>
</g>
<!-- B -->
<g id="node2" class="node"><title>B</title>
<ellipse fill="none" stroke="black" cx="37.0467" cy="-105" rx="37.0935" ry="18"/>
<text text-anchor="middle" x="37.0467" y="-101.3" font-family="Times New Roman,serif" font-size="14.00">Toyota</text>
</g>
<!-- A&#45;&gt;B -->
<g id="edge1" class="edge"><title>A&#45;&gt;B</title>
<path fill="none" stroke="black" d="M65.4259,-184.344C50.2595,-179.274 33.1192,-170.587 24.0467,-156 19.4845,-148.665 20.1951,-139.772 22.8568,-131.531"/>
<polygon fill="black" stroke="black" points="26.0912,-132.868 26.6787,-122.29 19.6226,-130.193 26.0912,-132.868"/>
<text text-anchor="middle" x="89.0467" y="-144.8" font-family="Times New Roman,serif" font-size="14.00">same holding company</text>
</g>
<!-- C -->
<g id="node3" class="node"><title>C</title>
<ellipse fill="none" stroke="black" cx="121.047" cy="-18" rx="32.4942" ry="18"/>
<text text-anchor="middle" x="121.047" y="-14.3" font-family="Times New Roman,serif" font-size="14.00">馬自達</text>
</g>
<!-- A&#45;&gt;C -->
<g id="edge2" class="edge"><title>A&#45;&gt;C</title>
<path fill="none" stroke="black" d="M122.241,-181.959C134.235,-176.46 147.151,-168.109 154.047,-156 174.367,-120.319 153.859,-72.538 137.323,-43.859"/>
<polygon fill="black" stroke="black" points="140.304,-42.0243 132.151,-35.2584 134.305,-45.6319 140.304,-42.0243"/>
<text text-anchor="middle" x="211.547" y="-101.3" font-family="Times New Roman,serif" font-size="14.00">racing competitor</text>
</g>
<!-- B&#45;&gt;C -->
<g id="edge3" class="edge"><title>B&#45;&gt;C</title>
<path fill="none" stroke="black" d="M52.4536,-88.4097C65.4408,-75.2679 84.191,-56.2945 98.8065,-41.505"/>
<polygon fill="black" stroke="black" points="101.48,-43.7785 106.02,-34.2055 96.5015,-38.8581 101.48,-43.7785"/>
<text text-anchor="middle" x="107.047" y="-57.8" font-family="Times New Roman,serif" font-size="14.00">大眾市場</text>
</g>
<!-- D -->
<g id="node4" class="node"><title>D</title>
<ellipse fill="none" stroke="black" cx="37.0467" cy="-18" rx="27" ry="18"/>
<text text-anchor="middle" x="37.0467" y="-14.3" font-family="Times New Roman,serif" font-size="14.00">D</text>
</g>
<!-- B&#45;&gt;D -->
<g id="edge4" class="edge"><title>B&#45;&gt;D</title>
<path fill="none" stroke="black" d="M37.0467,-86.799C37.0467,-75.1626 37.0467,-59.5479 37.0467,-46.2368"/>
<polygon fill="black" stroke="black" points="40.5468,-46.1754 37.0467,-36.1754 33.5468,-46.1755 40.5468,-46.1754"/>
</g>
</g>
</svg>
