<?xml version="1.0" encoding="UTF-8" standalone="no"?>
<!DOCTYPE svg PUBLIC "-//W3C//DTD SVG 1.1//EN"
 "http://www.w3.org/Graphics/SVG/1.1/DTD/svg11.dtd">
<!-- Generated by graphviz version 2.38.0 (20140413.2041)
 -->
<!-- Title: %3 Pages: 1 -->
<svg width="145pt" height="260pt"
 viewBox="0.00 0.00 145.18 260.00" xmlns="http://www.w3.org/2000/svg" xmlns:xlink="http://www.w3.org/1999/xlink">
<g id="graph0" class="graph" transform="scale(1 1) rotate(0) translate(4 256)">
<title>%3</title>
<polygon fill="white" stroke="none" points="-4,4 -4,-256 141.183,-256 141.183,4 -4,4"/>
<!-- A -->
<g id="node1" class="node"><title>A</title>
<ellipse fill="none" stroke="black" cx="91" cy="-234" rx="27" ry="18"/>
<text text-anchor="middle" x="91" y="-230.3" font-family="Times New Roman,serif" font-size="14.00">A</text>
</g>
<!-- B -->
<g id="node2" class="node"><title>B</title>
<ellipse fill="none" stroke="black" cx="27" cy="-162" rx="27" ry="18"/>
<text text-anchor="middle" x="27" y="-158.3" font-family="Times New Roman,serif" font-size="14.00">B</text>
</g>
<!-- A&#45;&#45;B -->
<g id="edge1" class="edge"><title>A&#45;&#45;B</title>
<path fill="none" stroke="black" d="M73.5506,-219.834C61.3257,-208.269 45.7885,-191.41 35.8998,-179.057"/>
</g>
<!-- C -->
<g id="node3" class="node"><title>C</title>
<ellipse fill="none" stroke="black" cx="87" cy="-18" rx="27" ry="18"/>
<text text-anchor="middle" x="87" y="-14.3" font-family="Times New Roman,serif" font-size="14.00">C</text>
</g>
<!-- A&#45;&#45;C -->
<g id="edge2" class="edge"><title>A&#45;&#45;C</title>
<path fill="none" stroke="black" d="M94.4717,-215.796C105.108,-186.034 129.747,-123.21 114,-72 109.881,-58.6037 101.095,-45.5552 94.308,-35.7574"/>
</g>
<!-- D -->
<g id="node4" class="node"><title>D</title>
<ellipse fill="none" stroke="black" cx="87" cy="-90" rx="27" ry="18"/>
<text text-anchor="middle" x="87" y="-86.3" font-family="Times New Roman,serif" font-size="14.00">D</text>
</g>
<!-- A&#45;&#45;D -->
<g id="edge3" class="edge"><title>A&#45;&#45;D</title>
<path fill="none" stroke="black" d="M85.9709,-216.153C82.273,-188.824 80.7616,-135.14 82.9218,-107.825"/>
</g>
<!-- B&#45;&#45;A -->
<g id="edge4" class="edge"><title>B&#45;&#45;A</title>
<path fill="none" stroke="black" d="M44.6234,-176.331C56.7624,-187.835 72.1091,-204.487 81.957,-216.765"/>
</g>
<!-- B&#45;&#45;C -->
<g id="edge5" class="edge"><title>B&#45;&#45;C</title>
<path fill="none" stroke="black" d="M23.1978,-144.021C24.2861,-125.672 31.0583,-95.8559 42,-72 48.7704,-57.2386 59.5276,-42.0758 69.1914,-31.7707"/>
</g>
<!-- B&#45;&#45;D -->
<g id="edge6" class="edge"><title>B&#45;&#45;D</title>
<path fill="none" stroke="black" d="M35.1152,-144.765C44.2615,-132.487 58.6567,-115.835 70.1384,-104.331"/>
</g>
<!-- C&#45;&#45;A -->
<g id="edge7" class="edge"><title>C&#45;&#45;A</title>
<path fill="none" stroke="black" d="M105.915,-31.3491C116.189,-41.4216 127.227,-56.4773 132,-72 148.166,-124.572 121.769,-189.384 103.941,-218.099"/>
</g>
<!-- C&#45;&#45;B -->
<g id="edge8" class="edge"><title>C&#45;&#45;B</title>
<path fill="none" stroke="black" d="M81.3268,-35.7938C74.9357,-45.8085 65.9357,-59.0585 60,-72 48.8582,-96.2923 42.0397,-126.765 36.1469,-145.017"/>
</g>
<!-- C&#45;&#45;D -->
<g id="edge9" class="edge"><title>C&#45;&#45;D</title>
<path fill="none" stroke="black" d="M92.8794,-35.9562C94.0532,-47.0274 94.04,-61.4141 92.8399,-72.411"/>
</g>
<!-- D&#45;&#45;A -->
<g id="edge10" class="edge"><title>D&#45;&#45;A</title>
<path fill="none" stroke="black" d="M92.0261,-107.825C95.7252,-135.14 97.2382,-188.824 95.08,-216.153"/>
</g>
<!-- D&#45;&#45;B -->
<g id="edge11" class="edge"><title>D&#45;&#45;B</title>
<path fill="none" stroke="black" d="M78.8283,-107.311C69.6354,-119.641 55.1819,-136.348 43.697,-147.834"/>
</g>
<!-- D&#45;&#45;C -->
<g id="edge12" class="edge"><title>D&#45;&#45;C</title>
<path fill="none" stroke="black" d="M81.1601,-72.411C79.96,-61.4141 79.9468,-47.0274 81.1206,-35.9562"/>
</g>
</g>
</svg>
